<svg xmlns="http://www.w3.org/2000/svg" style="display:none">
<defs>

<symbol id="icon-jacket-classic" viewBox="0 0 100 120" fill="none" stroke="currentColor" stroke-width="2.4" stroke-linecap="round" stroke-linejoin="round">
  <path pathLength="1" d="M30,95 L30,48 Q30,24 50,24 Q70,24 70,48 L70,95 Z"/>
  <path pathLength="1" d="M50,24 L37,58 M50,24 L63,58"/>
  <path pathLength="1" d="M30,48 L14,54 L19,96 L30,90 Z"/>
  <path pathLength="1" d="M70,48 L86,54 L81,96 L70,90 Z"/>
  <circle pathLength="1" cx="50" cy="62" r="2"/>
  <circle pathLength="1" cx="50" cy="73" r="2"/>
  <circle pathLength="1" cx="50" cy="84" r="2"/>
</symbol>

<symbol id="icon-jacket-slim" viewBox="0 0 100 120" fill="none" stroke="currentColor" stroke-width="2.4" stroke-linecap="round" stroke-linejoin="round">
  <path pathLength="1" d="M34,95 L34,50 Q34,26 50,26 Q66,26 66,50 L66,95 Z"/>
  <path pathLength="1" d="M50,26 L40,58 M50,26 L60,58"/>
  <path pathLength="1" d="M34,50 L20,56 L24,96 L34,91 Z"/>
  <path pathLength="1" d="M66,50 L80,56 L76,96 L66,91 Z"/>
  <circle pathLength="1" cx="50" cy="68" r="2"/>
  <circle pathLength="1" cx="50" cy="80" r="2"/>
</symbol>

<symbol id="icon-jacket-double" viewBox="0 0 100 120" fill="none" stroke="currentColor" stroke-width="2.4" stroke-linecap="round" stroke-linejoin="round">
  <path pathLength="1" d="M28,95 L28,48 Q28,24 50,24 Q72,24 72,48 L72,95 Z"/>
  <path pathLength="1" d="M50,24 L32,52 M50,24 L68,52"/>
  <path pathLength="1" d="M28,48 L12,55 L17,97 L28,90 Z"/>
  <path pathLength="1" d="M72,48 L88,55 L83,97 L72,90 Z"/>
  <circle pathLength="1" cx="42" cy="60" r="2"/>
  <circle pathLength="1" cx="58" cy="60" r="2"/>
  <circle pathLength="1" cx="42" cy="71" r="2"/>
  <circle pathLength="1" cx="58" cy="71" r="2"/>
  <circle pathLength="1" cx="42" cy="82" r="2"/>
  <circle pathLength="1" cx="58" cy="82" r="2"/>
</symbol>

<symbol id="icon-trousers-formal" viewBox="0 0 100 120" fill="none" stroke="currentColor" stroke-width="2.4" stroke-linecap="round" stroke-linejoin="round">
  <rect pathLength="1" x="34" y="18" width="32" height="10" rx="2"/>
  <path pathLength="1" d="M36,28 L33,98 L44,98 L48,28 Z"/>
  <path pathLength="1" d="M64,28 L67,98 L56,98 L52,28 Z"/>
  <line pathLength="1" x1="40" y1="32" x2="38" y2="95"/>
  <line pathLength="1" x1="60" y1="32" x2="62" y2="95"/>
</symbol>

<symbol id="icon-trousers-chino" viewBox="0 0 100 120" fill="none" stroke="currentColor" stroke-width="2.4" stroke-linecap="round" stroke-linejoin="round">
  <rect pathLength="1" x="34" y="18" width="32" height="10" rx="2"/>
  <path pathLength="1" d="M36,28 L34,96 L45,96 L48,28 Z"/>
  <path pathLength="1" d="M64,28 L66,96 L55,96 L52,28 Z"/>
  <line pathLength="1" x1="34.6" y1="90" x2="44.4" y2="90"/>
  <line pathLength="1" x1="55.6" y1="90" x2="65.4" y2="90"/>
</symbol>

<symbol id="icon-trousers-sport" viewBox="0 0 100 120" fill="none" stroke="currentColor" stroke-width="2.4" stroke-linecap="round" stroke-linejoin="round">
  <rect pathLength="1" x="34" y="18" width="32" height="10" rx="2"/>
  <path pathLength="1" d="M36,28 L33,98 L44,98 L48,28 Z"/>
  <path pathLength="1" d="M64,28 L67,98 L56,98 L52,28 Z"/>
  <line x1="33" y1="30" x2="30" y2="97" stroke-dasharray="3 3"/>
  <line x1="67" y1="30" x2="70" y2="97" stroke-dasharray="3 3"/>
</symbol>

<symbol id="icon-bespoke" viewBox="0 0 100 120" fill="none" stroke="currentColor" stroke-width="2.4" stroke-linecap="round" stroke-linejoin="round">
  <path d="M18,30 Q35,18 50,30 T82,30" stroke-dasharray="2 4"/>
  <circle pathLength="1" cx="38" cy="88" r="9"/>
  <circle pathLength="1" cx="62" cy="88" r="9"/>
  <line pathLength="1" x1="38" y1="88" x2="72" y2="42"/>
  <line pathLength="1" x1="62" y1="88" x2="28" y2="42"/>
</symbol>

<symbol id="icon-uniform" viewBox="0 0 100 120" fill="none" stroke="currentColor" stroke-width="2.4" stroke-linecap="round" stroke-linejoin="round">
  <path pathLength="1" d="M30,95 L30,48 Q30,26 50,26 Q70,26 70,48 L70,95 Z"/>
  <path pathLength="1" d="M40,26 L50,42 L60,26"/>
  <path pathLength="1" d="M46,34 L54,34 L50,62 Z"/>
  <path pathLength="1" d="M30,48 L17,53 L21,72 L30,68 Z"/>
  <path pathLength="1" d="M70,48 L83,53 L79,72 L70,68 Z"/>
</symbol>

</defs>
</svg>
